<mxfile host="app.diagrams.net" modified="2023-09-22T14:41:09.385Z" agent="Mozilla/5.0 (Windows NT 10.0; Win64; x64) AppleWebKit/537.36 (KHTML, like Gecko) Chrome/116.0.0.0 Safari/537.36" version="21.8.0" etag="6S1lO7UE494B0FUbBVzu" type="github">
  <diagram name="Page-1" id="02zNKmGCLPHwCLiIJFA2">
    <mxGraphModel>
      <root>
        <mxCell id="0" />
        <mxCell id="1" parent="0" />
      </root>
    </mxGraphModel>
  </diagram>
</mxfile>
